<mxfile host="app.diagrams.net" modified="2023-12-05T14:20:19.680Z" agent="Mozilla/5.0 (Windows NT 10.0; Win64; x64) AppleWebKit/537.36 (KHTML, like Gecko) Chrome/119.0.0.0 Safari/537.36" etag="5SMKtRli0eeGIxpdXXxD" version="22.1.5" type="device">
  <diagram name="Page-1" id="zIek61t_PiKrXnp5FhXO">
    <mxGraphModel dx="1050" dy="574" grid="1" gridSize="10" guides="1" tooltips="1" connect="1" arrows="1" fold="1" page="1" pageScale="1" pageWidth="850" pageHeight="1100" math="0" shadow="0">
      <root>
        <mxCell id="0" />
        <mxCell id="1" parent="0" />
        <mxCell id="ZrUCfyfzE2wd2yAuxdrj-1" value="" style="ellipse;whiteSpace=wrap;html=1;direction=south;fillColor=#7AFBFF;" vertex="1" parent="1">
          <mxGeometry x="90" y="120" width="240" height="310" as="geometry" />
        </mxCell>
        <mxCell id="ZrUCfyfzE2wd2yAuxdrj-2" value="" style="ellipse;whiteSpace=wrap;html=1;direction=south;fillColor=#45FFA2;" vertex="1" parent="1">
          <mxGeometry x="510" y="110" width="240" height="320" as="geometry" />
        </mxCell>
        <mxCell id="ZrUCfyfzE2wd2yAuxdrj-3" value="&lt;font style=&quot;font-size: 14px;&quot;&gt;Countries sending votes&lt;/font&gt;" style="text;html=1;strokeColor=none;fillColor=none;align=center;verticalAlign=middle;whiteSpace=wrap;rounded=0;" vertex="1" parent="1">
          <mxGeometry x="150" y="70" width="120" height="30" as="geometry" />
        </mxCell>
        <mxCell id="ZrUCfyfzE2wd2yAuxdrj-4" value="&lt;font style=&quot;font-size: 14px;&quot;&gt;Countries receiving votes&amp;nbsp;&lt;/font&gt;" style="text;html=1;strokeColor=none;fillColor=none;align=center;verticalAlign=middle;whiteSpace=wrap;rounded=0;" vertex="1" parent="1">
          <mxGeometry x="580" y="70" width="100" height="30" as="geometry" />
        </mxCell>
        <mxCell id="ZrUCfyfzE2wd2yAuxdrj-5" value="&lt;b&gt;Finland&lt;/b&gt;" style="text;html=1;strokeColor=none;fillColor=none;align=center;verticalAlign=middle;whiteSpace=wrap;rounded=0;" vertex="1" parent="1">
          <mxGeometry x="600" y="150" width="60" height="30" as="geometry" />
        </mxCell>
        <mxCell id="ZrUCfyfzE2wd2yAuxdrj-6" value="&lt;b&gt;Sweden&lt;/b&gt;" style="text;html=1;strokeColor=none;fillColor=none;align=center;verticalAlign=middle;whiteSpace=wrap;rounded=0;" vertex="1" parent="1">
          <mxGeometry x="600" y="200" width="60" height="30" as="geometry" />
        </mxCell>
        <mxCell id="ZrUCfyfzE2wd2yAuxdrj-7" value="&lt;b&gt;Norway&lt;/b&gt;" style="text;html=1;strokeColor=none;fillColor=none;align=center;verticalAlign=middle;whiteSpace=wrap;rounded=0;" vertex="1" parent="1">
          <mxGeometry x="600" y="250" width="60" height="30" as="geometry" />
        </mxCell>
        <mxCell id="ZrUCfyfzE2wd2yAuxdrj-8" value="&lt;b&gt;Ukraine&lt;/b&gt;" style="text;html=1;strokeColor=none;fillColor=none;align=center;verticalAlign=middle;whiteSpace=wrap;rounded=0;" vertex="1" parent="1">
          <mxGeometry x="600" y="290" width="60" height="30" as="geometry" />
        </mxCell>
        <mxCell id="ZrUCfyfzE2wd2yAuxdrj-9" value="&lt;b&gt;Israel&lt;/b&gt;" style="text;html=1;strokeColor=none;fillColor=none;align=center;verticalAlign=middle;whiteSpace=wrap;rounded=0;" vertex="1" parent="1">
          <mxGeometry x="600" y="330" width="60" height="30" as="geometry" />
        </mxCell>
        <mxCell id="ZrUCfyfzE2wd2yAuxdrj-11" value="&lt;font style=&quot;font-size: 15px;&quot;&gt;&lt;b&gt;...&lt;/b&gt;&lt;/font&gt;" style="text;html=1;strokeColor=none;fillColor=none;align=center;verticalAlign=middle;whiteSpace=wrap;rounded=0;" vertex="1" parent="1">
          <mxGeometry x="600" y="370" width="60" height="30" as="geometry" />
        </mxCell>
        <mxCell id="ZrUCfyfzE2wd2yAuxdrj-14" value="&lt;b&gt;Australia&lt;/b&gt;" style="text;html=1;strokeColor=none;fillColor=none;align=center;verticalAlign=middle;whiteSpace=wrap;rounded=0;" vertex="1" parent="1">
          <mxGeometry x="180" y="150" width="60" height="30" as="geometry" />
        </mxCell>
        <mxCell id="ZrUCfyfzE2wd2yAuxdrj-15" value="&lt;b&gt;Belgium&lt;/b&gt;" style="text;html=1;strokeColor=none;fillColor=none;align=center;verticalAlign=middle;whiteSpace=wrap;rounded=0;" vertex="1" parent="1">
          <mxGeometry x="180" y="190" width="60" height="30" as="geometry" />
        </mxCell>
        <mxCell id="ZrUCfyfzE2wd2yAuxdrj-16" value="&lt;b&gt;Finland&lt;/b&gt;" style="text;html=1;strokeColor=none;fillColor=none;align=center;verticalAlign=middle;whiteSpace=wrap;rounded=0;" vertex="1" parent="1">
          <mxGeometry x="180" y="230" width="60" height="30" as="geometry" />
        </mxCell>
        <mxCell id="ZrUCfyfzE2wd2yAuxdrj-17" value="&lt;b&gt;Netherlands&lt;/b&gt;" style="text;html=1;strokeColor=none;fillColor=none;align=center;verticalAlign=middle;whiteSpace=wrap;rounded=0;" vertex="1" parent="1">
          <mxGeometry x="180" y="280" width="60" height="30" as="geometry" />
        </mxCell>
        <mxCell id="ZrUCfyfzE2wd2yAuxdrj-18" value="&lt;b&gt;Poland&lt;/b&gt;" style="text;html=1;strokeColor=none;fillColor=none;align=center;verticalAlign=middle;whiteSpace=wrap;rounded=0;" vertex="1" parent="1">
          <mxGeometry x="180" y="320" width="60" height="30" as="geometry" />
        </mxCell>
        <mxCell id="ZrUCfyfzE2wd2yAuxdrj-20" value="&lt;font style=&quot;font-size: 15px;&quot;&gt;&lt;b&gt;...&lt;/b&gt;&lt;/font&gt;" style="text;html=1;strokeColor=none;fillColor=none;align=center;verticalAlign=middle;whiteSpace=wrap;rounded=0;" vertex="1" parent="1">
          <mxGeometry x="180" y="370" width="60" height="30" as="geometry" />
        </mxCell>
        <mxCell id="ZrUCfyfzE2wd2yAuxdrj-21" value="" style="endArrow=none;html=1;rounded=0;entryX=0;entryY=0.25;entryDx=0;entryDy=0;" edge="1" parent="1" source="ZrUCfyfzE2wd2yAuxdrj-14" target="ZrUCfyfzE2wd2yAuxdrj-5">
          <mxGeometry width="50" height="50" relative="1" as="geometry">
            <mxPoint x="250" y="160" as="sourcePoint" />
            <mxPoint x="300" y="110" as="targetPoint" />
          </mxGeometry>
        </mxCell>
        <mxCell id="ZrUCfyfzE2wd2yAuxdrj-22" value="" style="endArrow=none;html=1;rounded=0;exitX=1;exitY=0.75;exitDx=0;exitDy=0;" edge="1" parent="1" source="ZrUCfyfzE2wd2yAuxdrj-14" target="ZrUCfyfzE2wd2yAuxdrj-6">
          <mxGeometry width="50" height="50" relative="1" as="geometry">
            <mxPoint x="350" y="350" as="sourcePoint" />
            <mxPoint x="400" y="300" as="targetPoint" />
          </mxGeometry>
        </mxCell>
        <mxCell id="ZrUCfyfzE2wd2yAuxdrj-23" value="" style="endArrow=none;html=1;rounded=0;" edge="1" parent="1" source="ZrUCfyfzE2wd2yAuxdrj-15" target="ZrUCfyfzE2wd2yAuxdrj-5">
          <mxGeometry width="50" height="50" relative="1" as="geometry">
            <mxPoint x="350" y="350" as="sourcePoint" />
            <mxPoint x="400" y="300" as="targetPoint" />
          </mxGeometry>
        </mxCell>
        <mxCell id="ZrUCfyfzE2wd2yAuxdrj-24" value="" style="endArrow=none;html=1;rounded=0;exitX=1;exitY=0.75;exitDx=0;exitDy=0;entryX=0;entryY=0.5;entryDx=0;entryDy=0;" edge="1" parent="1" source="ZrUCfyfzE2wd2yAuxdrj-15" target="ZrUCfyfzE2wd2yAuxdrj-6">
          <mxGeometry width="50" height="50" relative="1" as="geometry">
            <mxPoint x="350" y="350" as="sourcePoint" />
            <mxPoint x="400" y="300" as="targetPoint" />
          </mxGeometry>
        </mxCell>
        <mxCell id="ZrUCfyfzE2wd2yAuxdrj-28" value="" style="endArrow=none;html=1;rounded=0;exitX=1;exitY=0.5;exitDx=0;exitDy=0;" edge="1" parent="1" source="ZrUCfyfzE2wd2yAuxdrj-16" target="ZrUCfyfzE2wd2yAuxdrj-7">
          <mxGeometry width="50" height="50" relative="1" as="geometry">
            <mxPoint x="350" y="350" as="sourcePoint" />
            <mxPoint x="400" y="300" as="targetPoint" />
          </mxGeometry>
        </mxCell>
        <mxCell id="ZrUCfyfzE2wd2yAuxdrj-29" value="" style="endArrow=none;html=1;rounded=0;exitX=1;exitY=0.5;exitDx=0;exitDy=0;entryX=0.25;entryY=1;entryDx=0;entryDy=0;" edge="1" parent="1" source="ZrUCfyfzE2wd2yAuxdrj-17" target="ZrUCfyfzE2wd2yAuxdrj-5">
          <mxGeometry width="50" height="50" relative="1" as="geometry">
            <mxPoint x="350" y="350" as="sourcePoint" />
            <mxPoint x="400" y="300" as="targetPoint" />
          </mxGeometry>
        </mxCell>
        <mxCell id="ZrUCfyfzE2wd2yAuxdrj-30" value="" style="endArrow=none;html=1;rounded=0;entryX=0.25;entryY=1;entryDx=0;entryDy=0;" edge="1" parent="1" source="ZrUCfyfzE2wd2yAuxdrj-17" target="ZrUCfyfzE2wd2yAuxdrj-6">
          <mxGeometry width="50" height="50" relative="1" as="geometry">
            <mxPoint x="350" y="350" as="sourcePoint" />
            <mxPoint x="400" y="300" as="targetPoint" />
          </mxGeometry>
        </mxCell>
        <mxCell id="ZrUCfyfzE2wd2yAuxdrj-31" value="" style="endArrow=none;html=1;rounded=0;exitX=1;exitY=0.25;exitDx=0;exitDy=0;entryX=0;entryY=0.75;entryDx=0;entryDy=0;" edge="1" parent="1" source="ZrUCfyfzE2wd2yAuxdrj-18" target="ZrUCfyfzE2wd2yAuxdrj-5">
          <mxGeometry width="50" height="50" relative="1" as="geometry">
            <mxPoint x="350" y="300" as="sourcePoint" />
            <mxPoint x="400" y="250" as="targetPoint" />
          </mxGeometry>
        </mxCell>
        <mxCell id="ZrUCfyfzE2wd2yAuxdrj-32" value="" style="endArrow=none;html=1;rounded=0;entryX=0;entryY=0.75;entryDx=0;entryDy=0;" edge="1" parent="1" source="ZrUCfyfzE2wd2yAuxdrj-18" target="ZrUCfyfzE2wd2yAuxdrj-7">
          <mxGeometry width="50" height="50" relative="1" as="geometry">
            <mxPoint x="440" y="260" as="sourcePoint" />
            <mxPoint x="490" y="210" as="targetPoint" />
          </mxGeometry>
        </mxCell>
        <mxCell id="ZrUCfyfzE2wd2yAuxdrj-33" value="" style="endArrow=none;html=1;rounded=0;exitX=1;exitY=0.75;exitDx=0;exitDy=0;" edge="1" parent="1" source="ZrUCfyfzE2wd2yAuxdrj-18" target="ZrUCfyfzE2wd2yAuxdrj-8">
          <mxGeometry width="50" height="50" relative="1" as="geometry">
            <mxPoint x="130" y="370" as="sourcePoint" />
            <mxPoint x="180" y="320" as="targetPoint" />
          </mxGeometry>
        </mxCell>
        <mxCell id="ZrUCfyfzE2wd2yAuxdrj-34" value="" style="endArrow=none;html=1;rounded=0;" edge="1" parent="1" target="ZrUCfyfzE2wd2yAuxdrj-7">
          <mxGeometry width="50" height="50" relative="1" as="geometry">
            <mxPoint x="230" y="210" as="sourcePoint" />
            <mxPoint x="280" y="160" as="targetPoint" />
          </mxGeometry>
        </mxCell>
      </root>
    </mxGraphModel>
  </diagram>
</mxfile>
